<mxfile host="Electron" modified="2023-07-15T01:31:00.176Z" agent="Mozilla/5.0 (Macintosh; Intel Mac OS X 10_15_7) AppleWebKit/537.36 (KHTML, like Gecko) draw.io/21.6.1 Chrome/112.0.5615.204 Electron/24.6.1 Safari/537.36" etag="fklF2JJqccozTY7HkWoG" version="21.6.1" type="device">
  <diagram name="Page-1" id="LTXqz4FGeU3r2YCFCqyM">
    <mxGraphModel dx="1122" dy="722" grid="1" gridSize="10" guides="1" tooltips="1" connect="1" arrows="1" fold="1" page="1" pageScale="1" pageWidth="1200" pageHeight="1500" math="0" shadow="0">
      <root>
        <mxCell id="0" />
        <mxCell id="1" parent="0" />
        <mxCell id="xVHsqw0I0k0_TadlD1PF-124" value="" style="group" parent="1" vertex="1" connectable="0">
          <mxGeometry x="50" y="1900" width="503" height="1030" as="geometry" />
        </mxCell>
        <mxCell id="xVHsqw0I0k0_TadlD1PF-43" value="&lt;b&gt;START&lt;/b&gt;.&amp;nbsp; &amp;nbsp;&amp;nbsp;" style="triangle;whiteSpace=wrap;html=1;fillColor=#0050ef;strokeColor=#001DBC;fontColor=#ffffff;" parent="xVHsqw0I0k0_TadlD1PF-124" vertex="1">
          <mxGeometry x="188" y="30" width="127.5" height="170" as="geometry" />
        </mxCell>
        <mxCell id="xVHsqw0I0k0_TadlD1PF-45" value="DEFINE VARIABLE washCost = 0" style="rounded=0;whiteSpace=wrap;html=1;" parent="xVHsqw0I0k0_TadlD1PF-124" vertex="1">
          <mxGeometry x="171" y="250" width="160" height="60" as="geometry" />
        </mxCell>
        <mxCell id="xVHsqw0I0k0_TadlD1PF-123" style="edgeStyle=orthogonalEdgeStyle;rounded=0;orthogonalLoop=1;jettySize=auto;html=1;entryX=0.5;entryY=0;entryDx=0;entryDy=0;" parent="xVHsqw0I0k0_TadlD1PF-124" source="xVHsqw0I0k0_TadlD1PF-43" target="xVHsqw0I0k0_TadlD1PF-45" edge="1">
          <mxGeometry relative="1" as="geometry" />
        </mxCell>
        <mxCell id="xVHsqw0I0k0_TadlD1PF-47" value="&lt;b&gt;DISPLAY:&lt;br&gt;SELECT WASH &lt;br&gt;OPTION&lt;/b&gt;" style="rhombus;whiteSpace=wrap;html=1;fillColor=#f5f5f5;fontColor=#333333;strokeColor=#666666;" parent="xVHsqw0I0k0_TadlD1PF-124" vertex="1">
          <mxGeometry x="188" y="340" width="125.94" height="130" as="geometry" />
        </mxCell>
        <mxCell id="xVHsqw0I0k0_TadlD1PF-63" style="edgeStyle=orthogonalEdgeStyle;rounded=0;orthogonalLoop=1;jettySize=auto;html=1;entryX=0.5;entryY=0;entryDx=0;entryDy=0;" parent="xVHsqw0I0k0_TadlD1PF-124" source="xVHsqw0I0k0_TadlD1PF-45" target="xVHsqw0I0k0_TadlD1PF-47" edge="1">
          <mxGeometry relative="1" as="geometry" />
        </mxCell>
        <mxCell id="xVHsqw0I0k0_TadlD1PF-49" value="BASIC" style="whiteSpace=wrap;html=1;aspect=fixed;" parent="xVHsqw0I0k0_TadlD1PF-124" vertex="1">
          <mxGeometry x="39" y="530" width="80" height="80" as="geometry" />
        </mxCell>
        <mxCell id="xVHsqw0I0k0_TadlD1PF-58" style="edgeStyle=orthogonalEdgeStyle;rounded=0;orthogonalLoop=1;jettySize=auto;html=1;" parent="xVHsqw0I0k0_TadlD1PF-124" source="xVHsqw0I0k0_TadlD1PF-47" target="xVHsqw0I0k0_TadlD1PF-49" edge="1">
          <mxGeometry relative="1" as="geometry" />
        </mxCell>
        <mxCell id="xVHsqw0I0k0_TadlD1PF-50" value="CLEAN" style="whiteSpace=wrap;html=1;aspect=fixed;" parent="xVHsqw0I0k0_TadlD1PF-124" vertex="1">
          <mxGeometry x="211.6500000000001" y="530" width="80" height="80" as="geometry" />
        </mxCell>
        <mxCell id="xVHsqw0I0k0_TadlD1PF-59" style="edgeStyle=orthogonalEdgeStyle;rounded=0;orthogonalLoop=1;jettySize=auto;html=1;entryX=0.5;entryY=0;entryDx=0;entryDy=0;" parent="xVHsqw0I0k0_TadlD1PF-124" source="xVHsqw0I0k0_TadlD1PF-47" target="xVHsqw0I0k0_TadlD1PF-50" edge="1">
          <mxGeometry relative="1" as="geometry" />
        </mxCell>
        <mxCell id="xVHsqw0I0k0_TadlD1PF-51" value="SUPER CLEAN" style="whiteSpace=wrap;html=1;aspect=fixed;" parent="xVHsqw0I0k0_TadlD1PF-124" vertex="1">
          <mxGeometry x="369" y="530" width="80" height="80" as="geometry" />
        </mxCell>
        <mxCell id="xVHsqw0I0k0_TadlD1PF-60" style="edgeStyle=orthogonalEdgeStyle;rounded=0;orthogonalLoop=1;jettySize=auto;html=1;" parent="xVHsqw0I0k0_TadlD1PF-124" source="xVHsqw0I0k0_TadlD1PF-47" target="xVHsqw0I0k0_TadlD1PF-51" edge="1">
          <mxGeometry relative="1" as="geometry" />
        </mxCell>
        <mxCell id="xVHsqw0I0k0_TadlD1PF-52" value="ADD &quot;5.5&quot; TO washCost" style="whiteSpace=wrap;html=1;aspect=fixed;" parent="xVHsqw0I0k0_TadlD1PF-124" vertex="1">
          <mxGeometry x="39" y="650" width="80" height="80" as="geometry" />
        </mxCell>
        <mxCell id="xVHsqw0I0k0_TadlD1PF-56" style="edgeStyle=orthogonalEdgeStyle;rounded=0;orthogonalLoop=1;jettySize=auto;html=1;entryX=0.5;entryY=0;entryDx=0;entryDy=0;" parent="xVHsqw0I0k0_TadlD1PF-124" source="xVHsqw0I0k0_TadlD1PF-49" target="xVHsqw0I0k0_TadlD1PF-52" edge="1">
          <mxGeometry relative="1" as="geometry" />
        </mxCell>
        <mxCell id="xVHsqw0I0k0_TadlD1PF-53" value="ADD &quot;8.75&quot; TO washCost" style="whiteSpace=wrap;html=1;aspect=fixed;" parent="xVHsqw0I0k0_TadlD1PF-124" vertex="1">
          <mxGeometry x="212" y="650" width="80" height="80" as="geometry" />
        </mxCell>
        <mxCell id="xVHsqw0I0k0_TadlD1PF-55" style="edgeStyle=orthogonalEdgeStyle;rounded=0;orthogonalLoop=1;jettySize=auto;html=1;entryX=0.5;entryY=0;entryDx=0;entryDy=0;" parent="xVHsqw0I0k0_TadlD1PF-124" source="xVHsqw0I0k0_TadlD1PF-50" target="xVHsqw0I0k0_TadlD1PF-53" edge="1">
          <mxGeometry relative="1" as="geometry" />
        </mxCell>
        <mxCell id="xVHsqw0I0k0_TadlD1PF-54" value="ADD &quot;12.50&quot; TO washCost" style="whiteSpace=wrap;html=1;aspect=fixed;" parent="xVHsqw0I0k0_TadlD1PF-124" vertex="1">
          <mxGeometry x="369" y="650" width="80" height="80" as="geometry" />
        </mxCell>
        <mxCell id="xVHsqw0I0k0_TadlD1PF-57" style="edgeStyle=orthogonalEdgeStyle;rounded=0;orthogonalLoop=1;jettySize=auto;html=1;entryX=0.5;entryY=0;entryDx=0;entryDy=0;" parent="xVHsqw0I0k0_TadlD1PF-124" source="xVHsqw0I0k0_TadlD1PF-51" target="xVHsqw0I0k0_TadlD1PF-54" edge="1">
          <mxGeometry relative="1" as="geometry" />
        </mxCell>
        <mxCell id="xVHsqw0I0k0_TadlD1PF-64" value="START payment PROCESS" style="rounded=0;whiteSpace=wrap;html=1;fillColor=#ffcd28;strokeColor=#d79b00;gradientColor=#ffa500;" parent="xVHsqw0I0k0_TadlD1PF-124" vertex="1">
          <mxGeometry x="182" y="800" width="140" height="70" as="geometry" />
        </mxCell>
        <mxCell id="xVHsqw0I0k0_TadlD1PF-68" style="edgeStyle=orthogonalEdgeStyle;rounded=0;orthogonalLoop=1;jettySize=auto;html=1;entryX=0;entryY=0.5;entryDx=0;entryDy=0;" parent="xVHsqw0I0k0_TadlD1PF-124" source="xVHsqw0I0k0_TadlD1PF-52" target="xVHsqw0I0k0_TadlD1PF-64" edge="1">
          <mxGeometry relative="1" as="geometry">
            <Array as="points">
              <mxPoint x="79" y="835" />
            </Array>
          </mxGeometry>
        </mxCell>
        <mxCell id="xVHsqw0I0k0_TadlD1PF-69" style="edgeStyle=orthogonalEdgeStyle;rounded=0;orthogonalLoop=1;jettySize=auto;html=1;" parent="xVHsqw0I0k0_TadlD1PF-124" source="xVHsqw0I0k0_TadlD1PF-53" target="xVHsqw0I0k0_TadlD1PF-64" edge="1">
          <mxGeometry relative="1" as="geometry" />
        </mxCell>
        <mxCell id="xVHsqw0I0k0_TadlD1PF-70" style="edgeStyle=orthogonalEdgeStyle;rounded=0;orthogonalLoop=1;jettySize=auto;html=1;entryX=1;entryY=0.5;entryDx=0;entryDy=0;" parent="xVHsqw0I0k0_TadlD1PF-124" source="xVHsqw0I0k0_TadlD1PF-54" target="xVHsqw0I0k0_TadlD1PF-64" edge="1">
          <mxGeometry relative="1" as="geometry">
            <Array as="points">
              <mxPoint x="409" y="835" />
            </Array>
          </mxGeometry>
        </mxCell>
        <mxCell id="xVHsqw0I0k0_TadlD1PF-74" value="&lt;b&gt;&lt;font style=&quot;font-size: 24px;&quot;&gt;&lt;u&gt;&lt;font style=&quot;&quot;&gt;S&lt;/font&gt;&lt;font style=&quot;&quot;&gt;UBPROCESS 1&lt;br&gt;REGULAR CUSTOMER AT DRIVE IN&lt;/font&gt;&lt;/u&gt;&lt;/font&gt;&lt;/b&gt;" style="text;html=1;align=center;verticalAlign=middle;resizable=0;points=[];autosize=1;strokeColor=none;fillColor=none;" parent="xVHsqw0I0k0_TadlD1PF-124" vertex="1">
          <mxGeometry x="29" y="-45" width="430" height="70" as="geometry" />
        </mxCell>
        <mxCell id="xVHsqw0I0k0_TadlD1PF-83" value="CONTINUE TO MAIN PROCESS" style="rounded=1;whiteSpace=wrap;html=1;fillColor=#dae8fc;strokeColor=#6c8ebf;" parent="xVHsqw0I0k0_TadlD1PF-124" vertex="1">
          <mxGeometry x="383" y="946" width="120" height="60" as="geometry" />
        </mxCell>
        <mxCell id="xVHsqw0I0k0_TadlD1PF-85" style="edgeStyle=orthogonalEdgeStyle;rounded=0;orthogonalLoop=1;jettySize=auto;html=1;entryX=0;entryY=0.5;entryDx=0;entryDy=0;" parent="xVHsqw0I0k0_TadlD1PF-124" source="xVHsqw0I0k0_TadlD1PF-84" target="xVHsqw0I0k0_TadlD1PF-83" edge="1">
          <mxGeometry relative="1" as="geometry" />
        </mxCell>
        <mxCell id="xVHsqw0I0k0_TadlD1PF-90" value="&lt;font style=&quot;font-size: 14px;&quot;&gt;&lt;b&gt;YES&lt;/b&gt;&lt;/font&gt;" style="edgeLabel;html=1;align=center;verticalAlign=middle;resizable=0;points=[];" parent="xVHsqw0I0k0_TadlD1PF-85" vertex="1" connectable="0">
          <mxGeometry x="-0.269" relative="1" as="geometry">
            <mxPoint as="offset" />
          </mxGeometry>
        </mxCell>
        <mxCell id="xVHsqw0I0k0_TadlD1PF-84" value="PAYMENT APPROVED?" style="rhombus;whiteSpace=wrap;html=1;fillColor=#f5f5f5;fontColor=#333333;strokeColor=#666666;" parent="xVHsqw0I0k0_TadlD1PF-124" vertex="1">
          <mxGeometry x="197" y="920" width="110" height="110" as="geometry" />
        </mxCell>
        <mxCell id="xVHsqw0I0k0_TadlD1PF-88" style="edgeStyle=orthogonalEdgeStyle;rounded=0;orthogonalLoop=1;jettySize=auto;html=1;entryX=0.5;entryY=0;entryDx=0;entryDy=0;" parent="xVHsqw0I0k0_TadlD1PF-124" source="xVHsqw0I0k0_TadlD1PF-64" target="xVHsqw0I0k0_TadlD1PF-84" edge="1">
          <mxGeometry relative="1" as="geometry" />
        </mxCell>
        <mxCell id="xVHsqw0I0k0_TadlD1PF-86" value="RESTART SUBPROCESS 1" style="rounded=1;whiteSpace=wrap;html=1;fillColor=#f8cecc;strokeColor=#b85450;" parent="xVHsqw0I0k0_TadlD1PF-124" vertex="1">
          <mxGeometry y="946" width="120" height="60" as="geometry" />
        </mxCell>
        <mxCell id="xVHsqw0I0k0_TadlD1PF-87" style="edgeStyle=orthogonalEdgeStyle;rounded=0;orthogonalLoop=1;jettySize=auto;html=1;entryX=1;entryY=0.5;entryDx=0;entryDy=0;" parent="xVHsqw0I0k0_TadlD1PF-124" source="xVHsqw0I0k0_TadlD1PF-84" target="xVHsqw0I0k0_TadlD1PF-86" edge="1">
          <mxGeometry relative="1" as="geometry" />
        </mxCell>
        <mxCell id="xVHsqw0I0k0_TadlD1PF-89" value="&lt;b&gt;&lt;font style=&quot;font-size: 14px;&quot;&gt;NO&lt;/font&gt;&lt;/b&gt;" style="edgeLabel;html=1;align=center;verticalAlign=middle;resizable=0;points=[];" parent="xVHsqw0I0k0_TadlD1PF-87" vertex="1" connectable="0">
          <mxGeometry x="-0.0733" y="2" relative="1" as="geometry">
            <mxPoint as="offset" />
          </mxGeometry>
        </mxCell>
        <mxCell id="9ZIoakH_FyQM4hklJKBf-96" value="" style="group" parent="1" vertex="1" connectable="0">
          <mxGeometry x="910" y="1892" width="643" height="1030" as="geometry" />
        </mxCell>
        <mxCell id="xVHsqw0I0k0_TadlD1PF-92" value="&lt;b&gt;&lt;font style=&quot;font-size: 24px;&quot;&gt;&lt;u&gt;SUBPROCESS 2&lt;br&gt;MONTHLY MEMBER&lt;/u&gt;&lt;/font&gt;&lt;/b&gt;" style="text;html=1;align=center;verticalAlign=middle;resizable=0;points=[];autosize=1;strokeColor=none;fillColor=none;" parent="9ZIoakH_FyQM4hklJKBf-96" vertex="1">
          <mxGeometry x="-25" y="-39" width="250" height="70" as="geometry" />
        </mxCell>
        <mxCell id="xVHsqw0I0k0_TadlD1PF-93" value="&lt;b&gt;START.&amp;nbsp; &amp;nbsp;&amp;nbsp;&lt;/b&gt;" style="triangle;whiteSpace=wrap;html=1;fillColor=#d80073;strokeColor=#A50040;fontColor=#ffffff;" parent="9ZIoakH_FyQM4hklJKBf-96" vertex="1">
          <mxGeometry x="51" y="40" width="118.5" height="158" as="geometry" />
        </mxCell>
        <mxCell id="xVHsqw0I0k0_TadlD1PF-125" value="DEFINE VARIABLE washCost = 0" style="rounded=0;whiteSpace=wrap;html=1;" parent="9ZIoakH_FyQM4hklJKBf-96" vertex="1">
          <mxGeometry x="30" y="238" width="160" height="60" as="geometry" />
        </mxCell>
        <mxCell id="9ZIoakH_FyQM4hklJKBf-27" style="edgeStyle=orthogonalEdgeStyle;rounded=0;orthogonalLoop=1;jettySize=auto;html=1;entryX=0.5;entryY=0;entryDx=0;entryDy=0;" parent="9ZIoakH_FyQM4hklJKBf-96" source="xVHsqw0I0k0_TadlD1PF-93" target="xVHsqw0I0k0_TadlD1PF-125" edge="1">
          <mxGeometry relative="1" as="geometry" />
        </mxCell>
        <mxCell id="xVHsqw0I0k0_TadlD1PF-130" value="CHECK SIGNED UP MEMBER OPTION" style="rounded=0;whiteSpace=wrap;html=1;" parent="9ZIoakH_FyQM4hklJKBf-96" vertex="1">
          <mxGeometry x="30" y="349" width="160" height="60" as="geometry" />
        </mxCell>
        <mxCell id="xVHsqw0I0k0_TadlD1PF-142" style="edgeStyle=orthogonalEdgeStyle;rounded=0;orthogonalLoop=1;jettySize=auto;html=1;entryX=0.5;entryY=0;entryDx=0;entryDy=0;" parent="9ZIoakH_FyQM4hklJKBf-96" source="xVHsqw0I0k0_TadlD1PF-125" target="xVHsqw0I0k0_TadlD1PF-130" edge="1">
          <mxGeometry relative="1" as="geometry">
            <mxPoint x="110" y="295" as="targetPoint" />
            <Array as="points">
              <mxPoint x="110" y="280" />
              <mxPoint x="111" y="349" />
            </Array>
          </mxGeometry>
        </mxCell>
        <mxCell id="xVHsqw0I0k0_TadlD1PF-131" value="did customer signed up BASIC ?" style="rhombus;whiteSpace=wrap;html=1;" parent="9ZIoakH_FyQM4hklJKBf-96" vertex="1">
          <mxGeometry x="35" y="462" width="150" height="150" as="geometry" />
        </mxCell>
        <mxCell id="9ZIoakH_FyQM4hklJKBf-95" style="edgeStyle=orthogonalEdgeStyle;rounded=0;orthogonalLoop=1;jettySize=auto;html=1;entryX=0.5;entryY=0;entryDx=0;entryDy=0;" parent="9ZIoakH_FyQM4hklJKBf-96" source="xVHsqw0I0k0_TadlD1PF-130" target="xVHsqw0I0k0_TadlD1PF-131" edge="1">
          <mxGeometry relative="1" as="geometry" />
        </mxCell>
        <mxCell id="xVHsqw0I0k0_TadlD1PF-132" value="did customer signed up CLEAN ?" style="rhombus;whiteSpace=wrap;html=1;" parent="9ZIoakH_FyQM4hklJKBf-96" vertex="1">
          <mxGeometry x="35" y="669" width="150" height="150" as="geometry" />
        </mxCell>
        <mxCell id="xVHsqw0I0k0_TadlD1PF-144" value="&lt;b&gt;NO&lt;/b&gt;" style="edgeStyle=orthogonalEdgeStyle;rounded=0;orthogonalLoop=1;jettySize=auto;html=1;entryX=0.5;entryY=0;entryDx=0;entryDy=0;" parent="9ZIoakH_FyQM4hklJKBf-96" source="xVHsqw0I0k0_TadlD1PF-131" target="xVHsqw0I0k0_TadlD1PF-132" edge="1">
          <mxGeometry relative="1" as="geometry">
            <Array as="points">
              <mxPoint x="110" y="632" />
              <mxPoint x="110" y="632" />
            </Array>
          </mxGeometry>
        </mxCell>
        <mxCell id="xVHsqw0I0k0_TadlD1PF-133" value="did customer signed up SUPER CLEAN ?" style="rhombus;whiteSpace=wrap;html=1;" parent="9ZIoakH_FyQM4hklJKBf-96" vertex="1">
          <mxGeometry x="35" y="880" width="150" height="150" as="geometry" />
        </mxCell>
        <mxCell id="xVHsqw0I0k0_TadlD1PF-145" value="&lt;b&gt;NO&lt;/b&gt;" style="edgeStyle=orthogonalEdgeStyle;rounded=0;orthogonalLoop=1;jettySize=auto;html=1;entryX=0.5;entryY=0;entryDx=0;entryDy=0;" parent="9ZIoakH_FyQM4hklJKBf-96" source="xVHsqw0I0k0_TadlD1PF-132" target="xVHsqw0I0k0_TadlD1PF-133" edge="1">
          <mxGeometry relative="1" as="geometry">
            <Array as="points">
              <mxPoint x="110" y="822" />
              <mxPoint x="110" y="822" />
            </Array>
          </mxGeometry>
        </mxCell>
        <mxCell id="xVHsqw0I0k0_TadlD1PF-153" value="ADD +1 TO washCount" style="rounded=0;whiteSpace=wrap;html=1;" parent="9ZIoakH_FyQM4hklJKBf-96" vertex="1">
          <mxGeometry x="254" y="714.5" width="160" height="60" as="geometry" />
        </mxCell>
        <mxCell id="xVHsqw0I0k0_TadlD1PF-137" style="edgeStyle=orthogonalEdgeStyle;rounded=0;orthogonalLoop=1;jettySize=auto;html=1;entryX=0.5;entryY=0;entryDx=0;entryDy=0;" parent="9ZIoakH_FyQM4hklJKBf-96" source="xVHsqw0I0k0_TadlD1PF-131" target="xVHsqw0I0k0_TadlD1PF-153" edge="1">
          <mxGeometry relative="1" as="geometry">
            <mxPoint x="280" y="537" as="targetPoint" />
          </mxGeometry>
        </mxCell>
        <mxCell id="9ZIoakH_FyQM4hklJKBf-29" value="&lt;font style=&quot;font-size: 14px;&quot;&gt;&lt;b&gt;YES&lt;/b&gt;&lt;/font&gt;" style="edgeLabel;html=1;align=center;verticalAlign=middle;resizable=0;points=[];" parent="xVHsqw0I0k0_TadlD1PF-137" vertex="1" connectable="0">
          <mxGeometry x="-0.6295" y="-2" relative="1" as="geometry">
            <mxPoint as="offset" />
          </mxGeometry>
        </mxCell>
        <mxCell id="xVHsqw0I0k0_TadlD1PF-138" style="edgeStyle=orthogonalEdgeStyle;rounded=0;orthogonalLoop=1;jettySize=auto;html=1;entryX=0;entryY=0.5;entryDx=0;entryDy=0;" parent="9ZIoakH_FyQM4hklJKBf-96" source="xVHsqw0I0k0_TadlD1PF-132" target="xVHsqw0I0k0_TadlD1PF-153" edge="1">
          <mxGeometry relative="1" as="geometry">
            <mxPoint x="280" y="744" as="targetPoint" />
          </mxGeometry>
        </mxCell>
        <mxCell id="xVHsqw0I0k0_TadlD1PF-148" value="&lt;font style=&quot;font-size: 14px;&quot;&gt;&lt;b&gt;YES&lt;/b&gt;&lt;/font&gt;" style="edgeLabel;html=1;align=center;verticalAlign=middle;resizable=0;points=[];" parent="xVHsqw0I0k0_TadlD1PF-138" vertex="1" connectable="0">
          <mxGeometry x="-0.2146" relative="1" as="geometry">
            <mxPoint as="offset" />
          </mxGeometry>
        </mxCell>
        <mxCell id="9ZIoakH_FyQM4hklJKBf-28" style="edgeStyle=orthogonalEdgeStyle;rounded=0;orthogonalLoop=1;jettySize=auto;html=1;entryX=0.5;entryY=1;entryDx=0;entryDy=0;" parent="9ZIoakH_FyQM4hklJKBf-96" source="xVHsqw0I0k0_TadlD1PF-133" target="xVHsqw0I0k0_TadlD1PF-153" edge="1">
          <mxGeometry relative="1" as="geometry" />
        </mxCell>
        <mxCell id="9ZIoakH_FyQM4hklJKBf-30" value="&lt;b&gt;&lt;font style=&quot;font-size: 14px;&quot;&gt;YES&lt;/font&gt;&lt;/b&gt;" style="edgeLabel;html=1;align=center;verticalAlign=middle;resizable=0;points=[];" parent="9ZIoakH_FyQM4hklJKBf-28" vertex="1" connectable="0">
          <mxGeometry x="-0.6966" y="-3" relative="1" as="geometry">
            <mxPoint as="offset" />
          </mxGeometry>
        </mxCell>
        <mxCell id="xVHsqw0I0k0_TadlD1PF-157" value="CONTINUE TO MAIN PROCESS" style="rounded=1;whiteSpace=wrap;html=1;fillColor=#dae8fc;strokeColor=#6c8ebf;" parent="9ZIoakH_FyQM4hklJKBf-96" vertex="1">
          <mxGeometry x="471" y="713.5" width="120" height="60" as="geometry" />
        </mxCell>
        <mxCell id="xVHsqw0I0k0_TadlD1PF-158" style="edgeStyle=orthogonalEdgeStyle;rounded=0;orthogonalLoop=1;jettySize=auto;html=1;entryX=0;entryY=0.5;entryDx=0;entryDy=0;" parent="9ZIoakH_FyQM4hklJKBf-96" source="xVHsqw0I0k0_TadlD1PF-153" target="xVHsqw0I0k0_TadlD1PF-157" edge="1">
          <mxGeometry relative="1" as="geometry" />
        </mxCell>
        <mxCell id="9ZIoakH_FyQM4hklJKBf-154" value="" style="group;fillColor=none;" parent="1" vertex="1" connectable="0">
          <mxGeometry x="1090" y="60" width="926.87" height="1600" as="geometry" />
        </mxCell>
        <mxCell id="xVHsqw0I0k0_TadlD1PF-41" value="&lt;b&gt;&lt;font style=&quot;font-size: 72px;&quot;&gt;MAIN PROCESS&lt;/font&gt;&lt;/b&gt;" style="text;html=1;align=center;verticalAlign=middle;resizable=0;points=[];autosize=1;strokeColor=none;fillColor=none;container=0;" parent="9ZIoakH_FyQM4hklJKBf-154" vertex="1">
          <mxGeometry x="232.3048700887199" y="-48.16446402349486" width="580" height="100" as="geometry" />
        </mxCell>
        <mxCell id="xVHsqw0I0k0_TadlD1PF-76" value="&lt;b&gt;&lt;font style=&quot;font-size: 14px;&quot;&gt;END&lt;/font&gt;&lt;/b&gt;" style="whiteSpace=wrap;html=1;aspect=fixed;fillColor=#f8cecc;strokeColor=#b85450;container=0;" parent="9ZIoakH_FyQM4hklJKBf-154" vertex="1">
          <mxGeometry x="458.44235424588084" y="1482.5256975036712" width="117.47401774397972" height="117.47401774397972" as="geometry" />
        </mxCell>
        <mxCell id="xVHsqw0I0k0_TadlD1PF-80" style="edgeStyle=orthogonalEdgeStyle;rounded=0;orthogonalLoop=1;jettySize=auto;html=1;entryX=0.5;entryY=0;entryDx=0;entryDy=0;" parent="9ZIoakH_FyQM4hklJKBf-154" source="xVHsqw0I0k0_TadlD1PF-77" target="xVHsqw0I0k0_TadlD1PF-76" edge="1">
          <mxGeometry relative="1" as="geometry" />
        </mxCell>
        <mxCell id="xVHsqw0I0k0_TadlD1PF-2" value="KIOSK SCAN BARCODE ON WINDSHIELD" style="rounded=0;whiteSpace=wrap;html=1;container=0;" parent="9ZIoakH_FyQM4hklJKBf-154" vertex="1">
          <mxGeometry x="484.8740082382763" y="299.5594713656388" width="176.2110266159696" height="93.97944199706315" as="geometry" />
        </mxCell>
        <mxCell id="xVHsqw0I0k0_TadlD1PF-3" value="IS A STICK-ON CHIP DETECTED" style="rhombus;whiteSpace=wrap;html=1;container=0;fillColor=#f5f5f5;fontColor=#333333;strokeColor=#666666;" parent="9ZIoakH_FyQM4hklJKBf-154" vertex="1">
          <mxGeometry x="487.6346476552597" y="440.5286343612335" width="170.70149518377693" height="176.21145374449338" as="geometry" />
        </mxCell>
        <mxCell id="xVHsqw0I0k0_TadlD1PF-39" style="edgeStyle=orthogonalEdgeStyle;rounded=0;orthogonalLoop=1;jettySize=auto;html=1;entryX=0.5;entryY=0;entryDx=0;entryDy=0;" parent="9ZIoakH_FyQM4hklJKBf-154" source="xVHsqw0I0k0_TadlD1PF-2" target="xVHsqw0I0k0_TadlD1PF-3" edge="1">
          <mxGeometry relative="1" as="geometry" />
        </mxCell>
        <mxCell id="xVHsqw0I0k0_TadlD1PF-38" style="edgeStyle=orthogonalEdgeStyle;rounded=0;orthogonalLoop=1;jettySize=auto;html=1;entryX=0.5;entryY=0;entryDx=0;entryDy=0;" parent="9ZIoakH_FyQM4hklJKBf-154" source="xVHsqw0I0k0_TadlD1PF-5" target="xVHsqw0I0k0_TadlD1PF-2" edge="1">
          <mxGeometry relative="1" as="geometry" />
        </mxCell>
        <mxCell id="xVHsqw0I0k0_TadlD1PF-5" value="&lt;b&gt;&lt;font style=&quot;font-size: 14px;&quot;&gt;START.&lt;/font&gt;&lt;/b&gt;&amp;nbsp; &amp;nbsp;&amp;nbsp;" style="triangle;whiteSpace=wrap;html=1;fillColor=#d5e8d4;strokeColor=#82b366;container=0;" parent="9ZIoakH_FyQM4hklJKBf-154" vertex="1">
          <mxGeometry x="504.9341191381495" y="69.30983847283407" width="137.44460076045627" height="183.25991189427313" as="geometry" />
        </mxCell>
        <mxCell id="xVHsqw0I0k0_TadlD1PF-6" value="REGULAR CUSTOMER DETECTED" style="rounded=0;whiteSpace=wrap;html=1;container=0;fillColor=#ffe6cc;strokeColor=#d79b00;" parent="9ZIoakH_FyQM4hklJKBf-154" vertex="1">
          <mxGeometry x="738.9115716096325" y="494.5668135095448" width="187.95842839036754" height="70.48458149779736" as="geometry" />
        </mxCell>
        <mxCell id="xVHsqw0I0k0_TadlD1PF-20" style="edgeStyle=orthogonalEdgeStyle;rounded=0;orthogonalLoop=1;jettySize=auto;html=1;entryX=0;entryY=0.5;entryDx=0;entryDy=0;" parent="9ZIoakH_FyQM4hklJKBf-154" source="xVHsqw0I0k0_TadlD1PF-3" target="xVHsqw0I0k0_TadlD1PF-6" edge="1">
          <mxGeometry relative="1" as="geometry">
            <mxPoint x="763.5811153358682" y="528.6343612334801" as="targetPoint" />
          </mxGeometry>
        </mxCell>
        <mxCell id="xVHsqw0I0k0_TadlD1PF-21" value="&lt;font style=&quot;font-size: 14px;&quot;&gt;&lt;b&gt;NO&lt;/b&gt;&lt;/font&gt;" style="edgeLabel;html=1;align=center;verticalAlign=middle;resizable=0;points=[];container=0;" parent="xVHsqw0I0k0_TadlD1PF-20" vertex="1" connectable="0">
          <mxGeometry x="-0.2327" y="-1" relative="1" as="geometry">
            <mxPoint as="offset" />
          </mxGeometry>
        </mxCell>
        <mxCell id="xVHsqw0I0k0_TadlD1PF-10" value="&lt;b&gt;&lt;font style=&quot;font-size: 14px;&quot;&gt;CALL SUBPROCESS 1&lt;/font&gt;&lt;/b&gt;" style="rounded=0;whiteSpace=wrap;html=1;fillColor=#0050ef;strokeColor=#001DBC;fontColor=#ffffff;container=0;" parent="9ZIoakH_FyQM4hklJKBf-154" vertex="1">
          <mxGeometry x="738.9115716096325" y="756.5345080763583" width="187.95842839036754" height="70.48458149779736" as="geometry" />
        </mxCell>
        <mxCell id="xVHsqw0I0k0_TadlD1PF-12" style="edgeStyle=orthogonalEdgeStyle;rounded=0;orthogonalLoop=1;jettySize=auto;html=1;entryX=0.5;entryY=0;entryDx=0;entryDy=0;" parent="9ZIoakH_FyQM4hklJKBf-154" source="xVHsqw0I0k0_TadlD1PF-6" target="xVHsqw0I0k0_TadlD1PF-10" edge="1">
          <mxGeometry relative="1" as="geometry" />
        </mxCell>
        <mxCell id="xVHsqw0I0k0_TadlD1PF-14" value="MONTHLY MEMBER DETECTED" style="rounded=0;whiteSpace=wrap;html=1;container=0;fillColor=#fff2cc;strokeColor=#d6b656;gradientColor=#ffd966;" parent="9ZIoakH_FyQM4hklJKBf-154" vertex="1">
          <mxGeometry x="211.4532319391635" y="493.3920704845815" width="187.95842839036754" height="70.48458149779736" as="geometry" />
        </mxCell>
        <mxCell id="xVHsqw0I0k0_TadlD1PF-15" style="edgeStyle=orthogonalEdgeStyle;rounded=0;orthogonalLoop=1;jettySize=auto;html=1;entryX=1;entryY=0.5;entryDx=0;entryDy=0;" parent="9ZIoakH_FyQM4hklJKBf-154" source="xVHsqw0I0k0_TadlD1PF-3" target="xVHsqw0I0k0_TadlD1PF-14" edge="1">
          <mxGeometry relative="1" as="geometry" />
        </mxCell>
        <mxCell id="xVHsqw0I0k0_TadlD1PF-16" value="&lt;b&gt;&lt;font style=&quot;font-size: 14px;&quot;&gt;YES&lt;/font&gt;&lt;/b&gt;" style="edgeLabel;html=1;align=center;verticalAlign=middle;resizable=0;points=[];container=0;" parent="xVHsqw0I0k0_TadlD1PF-15" vertex="1" connectable="0">
          <mxGeometry x="0.2011" y="1" relative="1" as="geometry">
            <mxPoint as="offset" />
          </mxGeometry>
        </mxCell>
        <mxCell id="xVHsqw0I0k0_TadlD1PF-23" value="&lt;font style=&quot;font-size: 11px;&quot;&gt;&lt;b&gt;DISPLAY:&lt;br&gt;PROCEED WITH SIGNED &lt;br&gt;WASH OPTION? (IF NO, REGULAR RATES WILL &lt;br&gt;BE APPLIED)&lt;/b&gt;&lt;/font&gt;" style="rhombus;whiteSpace=wrap;html=1;container=0;fillColor=#f5f5f5;fontColor=#333333;strokeColor=#666666;" parent="9ZIoakH_FyQM4hklJKBf-154" vertex="1">
          <mxGeometry x="220.08757224334605" y="915.1248164464024" width="170.70149518377693" height="176.21145374449338" as="geometry" />
        </mxCell>
        <mxCell id="xVHsqw0I0k0_TadlD1PF-24" value="&lt;font style=&quot;font-size: 14px;&quot;&gt;&lt;b&gt;&lt;font style=&quot;&quot;&gt;CALL SUBPROCESS &lt;/font&gt;&lt;/b&gt;3&lt;/font&gt;" style="rounded=0;whiteSpace=wrap;html=1;fillColor=#a0522d;strokeColor=#6D1F00;fontColor=#ffffff;container=0;" parent="9ZIoakH_FyQM4hklJKBf-154" vertex="1">
          <mxGeometry x="422.906463878327" y="1044.3465491923641" width="187.95842839036754" height="70.48458149779736" as="geometry" />
        </mxCell>
        <mxCell id="xVHsqw0I0k0_TadlD1PF-28" style="edgeStyle=orthogonalEdgeStyle;rounded=0;orthogonalLoop=1;jettySize=auto;html=1;entryX=0.5;entryY=0;entryDx=0;entryDy=0;" parent="9ZIoakH_FyQM4hklJKBf-154" source="xVHsqw0I0k0_TadlD1PF-23" target="xVHsqw0I0k0_TadlD1PF-24" edge="1">
          <mxGeometry relative="1" as="geometry" />
        </mxCell>
        <mxCell id="9ZIoakH_FyQM4hklJKBf-32" value="&lt;b&gt;&lt;font style=&quot;font-size: 14px;&quot;&gt;NO&lt;/font&gt;&lt;/b&gt;" style="edgeLabel;html=1;align=center;verticalAlign=middle;resizable=0;points=[];container=0;" parent="xVHsqw0I0k0_TadlD1PF-28" vertex="1" connectable="0">
          <mxGeometry x="-0.4645" y="2" relative="1" as="geometry">
            <mxPoint x="1" as="offset" />
          </mxGeometry>
        </mxCell>
        <mxCell id="xVHsqw0I0k0_TadlD1PF-25" value="&lt;font style=&quot;font-size: 14px;&quot;&gt;&lt;b&gt;CALL SUBPROCESS 2&lt;/b&gt;&lt;/font&gt;" style="rounded=0;whiteSpace=wrap;html=1;fillColor=#d80073;fontColor=#ffffff;strokeColor=#A50040;container=0;" parent="9ZIoakH_FyQM4hklJKBf-154" vertex="1">
          <mxGeometry y="1044.3465491923641" width="187.95842839036754" height="70.48458149779736" as="geometry" />
        </mxCell>
        <mxCell id="xVHsqw0I0k0_TadlD1PF-29" style="edgeStyle=orthogonalEdgeStyle;rounded=0;orthogonalLoop=1;jettySize=auto;html=1;entryX=0.5;entryY=0;entryDx=0;entryDy=0;" parent="9ZIoakH_FyQM4hklJKBf-154" source="xVHsqw0I0k0_TadlD1PF-23" target="xVHsqw0I0k0_TadlD1PF-25" edge="1">
          <mxGeometry relative="1" as="geometry" />
        </mxCell>
        <mxCell id="9ZIoakH_FyQM4hklJKBf-31" value="&lt;font style=&quot;font-size: 14px;&quot;&gt;&lt;b&gt;YES&lt;/b&gt;&lt;/font&gt;" style="edgeLabel;html=1;align=center;verticalAlign=middle;resizable=0;points=[];container=0;" parent="xVHsqw0I0k0_TadlD1PF-29" vertex="1" connectable="0">
          <mxGeometry x="-0.2541" y="-4" relative="1" as="geometry">
            <mxPoint as="offset" />
          </mxGeometry>
        </mxCell>
        <mxCell id="9ZIoakH_FyQM4hklJKBf-153" value="" style="edgeStyle=orthogonalEdgeStyle;rounded=0;orthogonalLoop=1;jettySize=auto;html=1;" parent="9ZIoakH_FyQM4hklJKBf-154" source="xVHsqw0I0k0_TadlD1PF-33" target="xVHsqw0I0k0_TadlD1PF-24" edge="1">
          <mxGeometry relative="1" as="geometry" />
        </mxCell>
        <mxCell id="xVHsqw0I0k0_TadlD1PF-33" value="PRINT PAYMENT RECEIPT" style="rounded=0;whiteSpace=wrap;html=1;fillColor=#fff2cc;strokeColor=#d6b656;container=0;" parent="9ZIoakH_FyQM4hklJKBf-154" vertex="1">
          <mxGeometry x="429.0738498098859" y="1175.9177679882525" width="176.2110266159696" height="93.97944199706315" as="geometry" />
        </mxCell>
        <mxCell id="9ZIoakH_FyQM4hklJKBf-44" style="edgeStyle=orthogonalEdgeStyle;rounded=0;orthogonalLoop=1;jettySize=auto;html=1;entryX=1;entryY=0.5;entryDx=0;entryDy=0;" parent="9ZIoakH_FyQM4hklJKBf-154" source="xVHsqw0I0k0_TadlD1PF-10" target="xVHsqw0I0k0_TadlD1PF-33" edge="1">
          <mxGeometry relative="1" as="geometry">
            <Array as="points">
              <mxPoint x="832.8907858048162" y="1222.907488986784" />
            </Array>
          </mxGeometry>
        </mxCell>
        <mxCell id="9ZIoakH_FyQM4hklJKBf-45" style="edgeStyle=orthogonalEdgeStyle;rounded=0;orthogonalLoop=1;jettySize=auto;html=1;entryX=0;entryY=0.5;entryDx=0;entryDy=0;" parent="9ZIoakH_FyQM4hklJKBf-154" source="xVHsqw0I0k0_TadlD1PF-25" target="xVHsqw0I0k0_TadlD1PF-33" edge="1">
          <mxGeometry relative="1" as="geometry">
            <Array as="points">
              <mxPoint x="93.97921419518377" y="1222.907488986784" />
            </Array>
          </mxGeometry>
        </mxCell>
        <mxCell id="xVHsqw0I0k0_TadlD1PF-36" style="edgeStyle=orthogonalEdgeStyle;rounded=0;orthogonalLoop=1;jettySize=auto;html=1;entryX=0.5;entryY=0;entryDx=0;entryDy=0;" parent="9ZIoakH_FyQM4hklJKBf-154" source="xVHsqw0I0k0_TadlD1PF-24" target="xVHsqw0I0k0_TadlD1PF-33" edge="1">
          <mxGeometry relative="1" as="geometry" />
        </mxCell>
        <mxCell id="xVHsqw0I0k0_TadlD1PF-77" value="PROCEED TO WASH" style="rounded=0;whiteSpace=wrap;html=1;fillColor=#d5e8d4;strokeColor=#82b366;container=0;" parent="9ZIoakH_FyQM4hklJKBf-154" vertex="1">
          <mxGeometry x="429.0738498098859" y="1329.8091042584435" width="176.2110266159696" height="93.97944199706315" as="geometry" />
        </mxCell>
        <mxCell id="9ZIoakH_FyQM4hklJKBf-33" value="CHECK VARIABLE washCount" style="rounded=0;whiteSpace=wrap;html=1;container=0;" parent="9ZIoakH_FyQM4hklJKBf-154" vertex="1">
          <mxGeometry x="211.4532319391635" y="612.0411160058737" width="187.95842839036754" height="70.48458149779736" as="geometry" />
        </mxCell>
        <mxCell id="xVHsqw0I0k0_TadlD1PF-79" style="edgeStyle=orthogonalEdgeStyle;rounded=0;orthogonalLoop=1;jettySize=auto;html=1;entryX=0.5;entryY=0;entryDx=0;entryDy=0;" parent="9ZIoakH_FyQM4hklJKBf-154" source="xVHsqw0I0k0_TadlD1PF-33" target="xVHsqw0I0k0_TadlD1PF-77" edge="1">
          <mxGeometry relative="1" as="geometry" />
        </mxCell>
        <mxCell id="9ZIoakH_FyQM4hklJKBf-39" style="edgeStyle=orthogonalEdgeStyle;rounded=0;orthogonalLoop=1;jettySize=auto;html=1;entryX=0.75;entryY=0;entryDx=0;entryDy=0;" parent="9ZIoakH_FyQM4hklJKBf-154" source="9ZIoakH_FyQM4hklJKBf-34" target="xVHsqw0I0k0_TadlD1PF-24" edge="1">
          <mxGeometry relative="1" as="geometry" />
        </mxCell>
        <mxCell id="9ZIoakH_FyQM4hklJKBf-40" value="&lt;font style=&quot;font-size: 14px;&quot;&gt;&lt;b&gt;NO&lt;/b&gt;&lt;/font&gt;" style="edgeLabel;html=1;align=center;verticalAlign=middle;resizable=0;points=[];container=0;" parent="9ZIoakH_FyQM4hklJKBf-39" vertex="1" connectable="0">
          <mxGeometry x="-0.722" relative="1" as="geometry">
            <mxPoint as="offset" />
          </mxGeometry>
        </mxCell>
        <mxCell id="9ZIoakH_FyQM4hklJKBf-41" style="edgeStyle=orthogonalEdgeStyle;rounded=0;orthogonalLoop=1;jettySize=auto;html=1;entryX=0.5;entryY=0;entryDx=0;entryDy=0;" parent="9ZIoakH_FyQM4hklJKBf-154" source="9ZIoakH_FyQM4hklJKBf-34" target="xVHsqw0I0k0_TadlD1PF-23" edge="1">
          <mxGeometry relative="1" as="geometry" />
        </mxCell>
        <mxCell id="9ZIoakH_FyQM4hklJKBf-42" value="&lt;b&gt;&lt;font style=&quot;font-size: 14px;&quot;&gt;YES&lt;/font&gt;&lt;/b&gt;" style="edgeLabel;html=1;align=center;verticalAlign=middle;resizable=0;points=[];container=0;" parent="9ZIoakH_FyQM4hklJKBf-41" vertex="1" connectable="0">
          <mxGeometry x="-0.0867" y="-2" relative="1" as="geometry">
            <mxPoint as="offset" />
          </mxGeometry>
        </mxCell>
        <mxCell id="9ZIoakH_FyQM4hklJKBf-34" value="&lt;font style=&quot;font-size: 11px;&quot;&gt;washCount &amp;lt;= 2&lt;/font&gt;" style="rhombus;whiteSpace=wrap;html=1;container=0;" parent="9ZIoakH_FyQM4hklJKBf-154" vertex="1">
          <mxGeometry x="234.94803548795943" y="720.1174743024964" width="140.96882129277566" height="140.96916299559473" as="geometry" />
        </mxCell>
        <mxCell id="9ZIoakH_FyQM4hklJKBf-35" style="edgeStyle=orthogonalEdgeStyle;rounded=0;orthogonalLoop=1;jettySize=auto;html=1;entryX=0.5;entryY=0;entryDx=0;entryDy=0;" parent="9ZIoakH_FyQM4hklJKBf-154" source="xVHsqw0I0k0_TadlD1PF-14" target="9ZIoakH_FyQM4hklJKBf-33" edge="1">
          <mxGeometry relative="1" as="geometry" />
        </mxCell>
        <mxCell id="9ZIoakH_FyQM4hklJKBf-36" style="edgeStyle=orthogonalEdgeStyle;rounded=0;orthogonalLoop=1;jettySize=auto;html=1;entryX=0.5;entryY=0;entryDx=0;entryDy=0;" parent="9ZIoakH_FyQM4hklJKBf-154" source="9ZIoakH_FyQM4hklJKBf-33" target="9ZIoakH_FyQM4hklJKBf-34" edge="1">
          <mxGeometry relative="1" as="geometry" />
        </mxCell>
        <mxCell id="yiwDRgRXwIkbEOtySxnL-5" value="" style="group" parent="1" vertex="1" connectable="0">
          <mxGeometry x="1670" y="1855" width="1853" height="1125" as="geometry" />
        </mxCell>
        <mxCell id="9ZIoakH_FyQM4hklJKBf-46" value="&lt;b&gt;&lt;font style=&quot;font-size: 24px;&quot;&gt;&lt;u&gt;SUBPROCESS 3&lt;br&gt;MONTHLY MEMBER OVERRIDE OR EXCEED&lt;/u&gt;&lt;/font&gt;&lt;/b&gt;" style="text;html=1;align=center;verticalAlign=middle;resizable=0;points=[];autosize=1;strokeColor=none;fillColor=none;" parent="yiwDRgRXwIkbEOtySxnL-5" vertex="1">
          <mxGeometry width="530" height="70" as="geometry" />
        </mxCell>
        <mxCell id="9ZIoakH_FyQM4hklJKBf-48" value="&lt;b&gt;START.&amp;nbsp; &amp;nbsp;&amp;nbsp;&lt;/b&gt;" style="triangle;whiteSpace=wrap;html=1;fillColor=#a0522d;strokeColor=#6D1F00;fontColor=#ffffff;" parent="yiwDRgRXwIkbEOtySxnL-5" vertex="1">
          <mxGeometry x="214" y="95" width="121.5" height="162" as="geometry" />
        </mxCell>
        <mxCell id="9ZIoakH_FyQM4hklJKBf-50" value="DEFINE VARIABLE washCost = 0" style="rounded=0;whiteSpace=wrap;html=1;" parent="yiwDRgRXwIkbEOtySxnL-5" vertex="1">
          <mxGeometry x="195" y="297" width="160" height="60" as="geometry" />
        </mxCell>
        <mxCell id="9ZIoakH_FyQM4hklJKBf-47" style="edgeStyle=orthogonalEdgeStyle;rounded=0;orthogonalLoop=1;jettySize=auto;html=1;entryX=0.5;entryY=0;entryDx=0;entryDy=0;" parent="yiwDRgRXwIkbEOtySxnL-5" source="9ZIoakH_FyQM4hklJKBf-48" target="9ZIoakH_FyQM4hklJKBf-50" edge="1">
          <mxGeometry relative="1" as="geometry" />
        </mxCell>
        <mxCell id="9ZIoakH_FyQM4hklJKBf-60" value="did customer signed up BASIC ?" style="rhombus;whiteSpace=wrap;html=1;" parent="yiwDRgRXwIkbEOtySxnL-5" vertex="1">
          <mxGeometry x="1110" y="95" width="150" height="150" as="geometry" />
        </mxCell>
        <mxCell id="9ZIoakH_FyQM4hklJKBf-64" value="did customer signed up CLEAN ?" style="rhombus;whiteSpace=wrap;html=1;" parent="yiwDRgRXwIkbEOtySxnL-5" vertex="1">
          <mxGeometry x="1110" y="302" width="150" height="150" as="geometry" />
        </mxCell>
        <mxCell id="9ZIoakH_FyQM4hklJKBf-59" value="&lt;b&gt;&lt;font style=&quot;font-size: 14px;&quot;&gt;NO&lt;/font&gt;&lt;/b&gt;" style="edgeStyle=orthogonalEdgeStyle;rounded=0;orthogonalLoop=1;jettySize=auto;html=1;entryX=0.5;entryY=0;entryDx=0;entryDy=0;" parent="yiwDRgRXwIkbEOtySxnL-5" source="9ZIoakH_FyQM4hklJKBf-60" target="9ZIoakH_FyQM4hklJKBf-64" edge="1">
          <mxGeometry relative="1" as="geometry">
            <Array as="points">
              <mxPoint x="1185" y="265" />
              <mxPoint x="1185" y="265" />
            </Array>
          </mxGeometry>
        </mxCell>
        <mxCell id="9ZIoakH_FyQM4hklJKBf-67" value="did customer signed up SUPER CLEAN ?" style="rhombus;whiteSpace=wrap;html=1;" parent="yiwDRgRXwIkbEOtySxnL-5" vertex="1">
          <mxGeometry x="1110" y="513" width="150" height="150" as="geometry" />
        </mxCell>
        <mxCell id="9ZIoakH_FyQM4hklJKBf-63" value="&lt;b&gt;&lt;font style=&quot;font-size: 14px;&quot;&gt;NO&lt;/font&gt;&lt;/b&gt;" style="edgeStyle=orthogonalEdgeStyle;rounded=0;orthogonalLoop=1;jettySize=auto;html=1;entryX=0.5;entryY=0;entryDx=0;entryDy=0;" parent="yiwDRgRXwIkbEOtySxnL-5" source="9ZIoakH_FyQM4hklJKBf-64" target="9ZIoakH_FyQM4hklJKBf-67" edge="1">
          <mxGeometry x="0.082" relative="1" as="geometry">
            <Array as="points">
              <mxPoint x="1185" y="455" />
              <mxPoint x="1185" y="455" />
            </Array>
            <mxPoint as="offset" />
          </mxGeometry>
        </mxCell>
        <mxCell id="9ZIoakH_FyQM4hklJKBf-69" value="ADD +1 TO washCount" style="rounded=0;whiteSpace=wrap;html=1;" parent="yiwDRgRXwIkbEOtySxnL-5" vertex="1">
          <mxGeometry x="1502" y="347.5" width="160" height="60" as="geometry" />
        </mxCell>
        <mxCell id="9ZIoakH_FyQM4hklJKBf-70" value="CONTINUE TO MAIN PROCESS" style="rounded=1;whiteSpace=wrap;html=1;fillColor=#dae8fc;strokeColor=#6c8ebf;" parent="yiwDRgRXwIkbEOtySxnL-5" vertex="1">
          <mxGeometry x="1733" y="346.5" width="120" height="60" as="geometry" />
        </mxCell>
        <mxCell id="9ZIoakH_FyQM4hklJKBf-68" style="edgeStyle=orthogonalEdgeStyle;rounded=0;orthogonalLoop=1;jettySize=auto;html=1;entryX=0;entryY=0.5;entryDx=0;entryDy=0;" parent="yiwDRgRXwIkbEOtySxnL-5" source="9ZIoakH_FyQM4hklJKBf-69" target="9ZIoakH_FyQM4hklJKBf-70" edge="1">
          <mxGeometry relative="1" as="geometry" />
        </mxCell>
        <mxCell id="9ZIoakH_FyQM4hklJKBf-106" style="edgeStyle=orthogonalEdgeStyle;rounded=0;orthogonalLoop=1;jettySize=auto;html=1;" parent="yiwDRgRXwIkbEOtySxnL-5" source="9ZIoakH_FyQM4hklJKBf-99" target="9ZIoakH_FyQM4hklJKBf-69" edge="1">
          <mxGeometry relative="1" as="geometry" />
        </mxCell>
        <mxCell id="9ZIoakH_FyQM4hklJKBf-99" value="ADD &quot;5.5&quot; TO washCost" style="whiteSpace=wrap;html=1;aspect=fixed;" parent="yiwDRgRXwIkbEOtySxnL-5" vertex="1">
          <mxGeometry x="1354" y="130" width="80" height="80" as="geometry" />
        </mxCell>
        <mxCell id="9ZIoakH_FyQM4hklJKBf-104" style="edgeStyle=orthogonalEdgeStyle;rounded=0;orthogonalLoop=1;jettySize=auto;html=1;entryX=0;entryY=0.5;entryDx=0;entryDy=0;" parent="yiwDRgRXwIkbEOtySxnL-5" source="9ZIoakH_FyQM4hklJKBf-60" target="9ZIoakH_FyQM4hklJKBf-99" edge="1">
          <mxGeometry relative="1" as="geometry" />
        </mxCell>
        <mxCell id="9ZIoakH_FyQM4hklJKBf-115" value="&lt;b&gt;&lt;font style=&quot;font-size: 14px;&quot;&gt;YES&lt;/font&gt;&lt;/b&gt;" style="edgeLabel;html=1;align=center;verticalAlign=middle;resizable=0;points=[];" parent="9ZIoakH_FyQM4hklJKBf-104" vertex="1" connectable="0">
          <mxGeometry x="-0.0686" y="-2" relative="1" as="geometry">
            <mxPoint as="offset" />
          </mxGeometry>
        </mxCell>
        <mxCell id="9ZIoakH_FyQM4hklJKBf-107" style="edgeStyle=orthogonalEdgeStyle;rounded=0;orthogonalLoop=1;jettySize=auto;html=1;entryX=0;entryY=0.5;entryDx=0;entryDy=0;" parent="yiwDRgRXwIkbEOtySxnL-5" source="9ZIoakH_FyQM4hklJKBf-100" target="9ZIoakH_FyQM4hklJKBf-69" edge="1">
          <mxGeometry relative="1" as="geometry" />
        </mxCell>
        <mxCell id="9ZIoakH_FyQM4hklJKBf-100" value="ADD &quot;8.75&quot; TO washCost" style="whiteSpace=wrap;html=1;aspect=fixed;" parent="yiwDRgRXwIkbEOtySxnL-5" vertex="1">
          <mxGeometry x="1354" y="337.5" width="80" height="80" as="geometry" />
        </mxCell>
        <mxCell id="9ZIoakH_FyQM4hklJKBf-103" style="edgeStyle=orthogonalEdgeStyle;rounded=0;orthogonalLoop=1;jettySize=auto;html=1;entryX=0;entryY=0.5;entryDx=0;entryDy=0;" parent="yiwDRgRXwIkbEOtySxnL-5" source="9ZIoakH_FyQM4hklJKBf-64" target="9ZIoakH_FyQM4hklJKBf-100" edge="1">
          <mxGeometry relative="1" as="geometry" />
        </mxCell>
        <mxCell id="9ZIoakH_FyQM4hklJKBf-116" value="&lt;font style=&quot;font-size: 14px;&quot;&gt;&lt;b&gt;YES&lt;/b&gt;&lt;/font&gt;" style="edgeLabel;html=1;align=center;verticalAlign=middle;resizable=0;points=[];" parent="9ZIoakH_FyQM4hklJKBf-103" vertex="1" connectable="0">
          <mxGeometry x="-0.215" y="2" relative="1" as="geometry">
            <mxPoint as="offset" />
          </mxGeometry>
        </mxCell>
        <mxCell id="9ZIoakH_FyQM4hklJKBf-110" style="edgeStyle=orthogonalEdgeStyle;rounded=0;orthogonalLoop=1;jettySize=auto;html=1;entryX=0.5;entryY=1;entryDx=0;entryDy=0;" parent="yiwDRgRXwIkbEOtySxnL-5" source="9ZIoakH_FyQM4hklJKBf-101" target="9ZIoakH_FyQM4hklJKBf-69" edge="1">
          <mxGeometry relative="1" as="geometry" />
        </mxCell>
        <mxCell id="9ZIoakH_FyQM4hklJKBf-101" value="ADD &quot;12.50&quot; TO washCost" style="whiteSpace=wrap;html=1;aspect=fixed;" parent="yiwDRgRXwIkbEOtySxnL-5" vertex="1">
          <mxGeometry x="1354" y="548" width="80" height="80" as="geometry" />
        </mxCell>
        <mxCell id="9ZIoakH_FyQM4hklJKBf-102" value="&lt;b&gt;&lt;font style=&quot;font-size: 14px;&quot;&gt;YES&lt;/font&gt;&lt;/b&gt;" style="edgeStyle=orthogonalEdgeStyle;rounded=0;orthogonalLoop=1;jettySize=auto;html=1;entryX=0;entryY=0.5;entryDx=0;entryDy=0;" parent="yiwDRgRXwIkbEOtySxnL-5" source="9ZIoakH_FyQM4hklJKBf-67" target="9ZIoakH_FyQM4hklJKBf-101" edge="1">
          <mxGeometry relative="1" as="geometry">
            <Array as="points">
              <mxPoint x="1354" y="585" />
            </Array>
          </mxGeometry>
        </mxCell>
        <mxCell id="9ZIoakH_FyQM4hklJKBf-112" value="&lt;font style=&quot;font-size: 11px;&quot;&gt;&lt;b&gt;DISPLAY:&lt;br&gt;YOU HAVE SELECTED A &lt;br&gt;DIFFERENT WASH OPTION OF &lt;br&gt;YOUR SUBSCRIPTION. &lt;br&gt;REGULAR RATES WILL &lt;br&gt;BE APPLIED&lt;/b&gt;&lt;br&gt;&lt;/font&gt;" style="rhombus;whiteSpace=wrap;html=1;fillColor=#f5f5f5;fontColor=#333333;strokeColor=#666666;" parent="yiwDRgRXwIkbEOtySxnL-5" vertex="1">
          <mxGeometry x="178.75" y="525" width="192" height="192" as="geometry" />
        </mxCell>
        <mxCell id="9ZIoakH_FyQM4hklJKBf-117" value="&lt;b&gt;DISPLAY:&lt;br&gt;SELECT WASH&amp;nbsp;&lt;br&gt;OPTION&lt;/b&gt;" style="rhombus;whiteSpace=wrap;html=1;fillColor=#f5f5f5;fontColor=#333333;strokeColor=#666666;" parent="yiwDRgRXwIkbEOtySxnL-5" vertex="1">
          <mxGeometry x="347" y="844" width="150" height="150" as="geometry" />
        </mxCell>
        <mxCell id="MdQ8T-4K6LYKRLkmuWS0-14" style="edgeStyle=orthogonalEdgeStyle;rounded=0;orthogonalLoop=1;jettySize=auto;html=1;entryX=0;entryY=0.5;entryDx=0;entryDy=0;" parent="yiwDRgRXwIkbEOtySxnL-5" source="9ZIoakH_FyQM4hklJKBf-112" target="9ZIoakH_FyQM4hklJKBf-117" edge="1">
          <mxGeometry relative="1" as="geometry" />
        </mxCell>
        <mxCell id="9ZIoakH_FyQM4hklJKBf-120" value="BASIC" style="whiteSpace=wrap;html=1;aspect=fixed;rotation=0;" parent="yiwDRgRXwIkbEOtySxnL-5" vertex="1">
          <mxGeometry x="556" y="1045" width="80" height="80" as="geometry" />
        </mxCell>
        <mxCell id="9ZIoakH_FyQM4hklJKBf-143" style="edgeStyle=orthogonalEdgeStyle;rounded=0;orthogonalLoop=1;jettySize=auto;html=1;entryX=0;entryY=0.5;entryDx=0;entryDy=0;" parent="yiwDRgRXwIkbEOtySxnL-5" source="9ZIoakH_FyQM4hklJKBf-117" target="9ZIoakH_FyQM4hklJKBf-120" edge="1">
          <mxGeometry relative="1" as="geometry">
            <Array as="points">
              <mxPoint x="422" y="1085" />
            </Array>
          </mxGeometry>
        </mxCell>
        <mxCell id="9ZIoakH_FyQM4hklJKBf-121" value="CLEAN" style="whiteSpace=wrap;html=1;aspect=fixed;rotation=0;" parent="yiwDRgRXwIkbEOtySxnL-5" vertex="1">
          <mxGeometry x="556" y="872" width="80" height="80" as="geometry" />
        </mxCell>
        <mxCell id="9ZIoakH_FyQM4hklJKBf-135" style="edgeStyle=orthogonalEdgeStyle;rounded=0;orthogonalLoop=1;jettySize=auto;html=1;entryX=-0.031;entryY=0.599;entryDx=0;entryDy=0;entryPerimeter=0;" parent="yiwDRgRXwIkbEOtySxnL-5" source="9ZIoakH_FyQM4hklJKBf-117" target="9ZIoakH_FyQM4hklJKBf-121" edge="1">
          <mxGeometry relative="1" as="geometry" />
        </mxCell>
        <mxCell id="9ZIoakH_FyQM4hklJKBf-122" value="SUPER CLEAN" style="whiteSpace=wrap;html=1;aspect=fixed;rotation=0;" parent="yiwDRgRXwIkbEOtySxnL-5" vertex="1">
          <mxGeometry x="556" y="715" width="80" height="80" as="geometry" />
        </mxCell>
        <mxCell id="9ZIoakH_FyQM4hklJKBf-144" style="edgeStyle=orthogonalEdgeStyle;rounded=0;orthogonalLoop=1;jettySize=auto;html=1;entryX=0;entryY=0.5;entryDx=0;entryDy=0;" parent="yiwDRgRXwIkbEOtySxnL-5" source="9ZIoakH_FyQM4hklJKBf-117" target="9ZIoakH_FyQM4hklJKBf-122" edge="1">
          <mxGeometry relative="1" as="geometry">
            <Array as="points">
              <mxPoint x="422" y="755" />
            </Array>
          </mxGeometry>
        </mxCell>
        <mxCell id="9ZIoakH_FyQM4hklJKBf-123" value="ADD &quot;12.50&quot; TO washCost" style="whiteSpace=wrap;html=1;aspect=fixed;rotation=0;" parent="yiwDRgRXwIkbEOtySxnL-5" vertex="1">
          <mxGeometry x="717" y="715" width="80" height="80" as="geometry" />
        </mxCell>
        <mxCell id="9ZIoakH_FyQM4hklJKBf-137" style="edgeStyle=orthogonalEdgeStyle;rounded=0;orthogonalLoop=1;jettySize=auto;html=1;entryX=0;entryY=0.5;entryDx=0;entryDy=0;" parent="yiwDRgRXwIkbEOtySxnL-5" source="9ZIoakH_FyQM4hklJKBf-122" target="9ZIoakH_FyQM4hklJKBf-123" edge="1">
          <mxGeometry relative="1" as="geometry" />
        </mxCell>
        <mxCell id="9ZIoakH_FyQM4hklJKBf-124" value="ADD &quot;8.75&quot; TO washCost" style="whiteSpace=wrap;html=1;aspect=fixed;rotation=0;" parent="yiwDRgRXwIkbEOtySxnL-5" vertex="1">
          <mxGeometry x="717" y="872" width="80" height="80" as="geometry" />
        </mxCell>
        <mxCell id="9ZIoakH_FyQM4hklJKBf-138" style="edgeStyle=orthogonalEdgeStyle;rounded=0;orthogonalLoop=1;jettySize=auto;html=1;entryX=0;entryY=0.5;entryDx=0;entryDy=0;" parent="yiwDRgRXwIkbEOtySxnL-5" source="9ZIoakH_FyQM4hklJKBf-121" target="9ZIoakH_FyQM4hklJKBf-124" edge="1">
          <mxGeometry relative="1" as="geometry" />
        </mxCell>
        <mxCell id="9ZIoakH_FyQM4hklJKBf-125" value="ADD &quot;5.5&quot; TO washCost" style="whiteSpace=wrap;html=1;aspect=fixed;rotation=0;" parent="yiwDRgRXwIkbEOtySxnL-5" vertex="1">
          <mxGeometry x="717" y="1045" width="80" height="80" as="geometry" />
        </mxCell>
        <mxCell id="9ZIoakH_FyQM4hklJKBf-139" style="edgeStyle=orthogonalEdgeStyle;rounded=0;orthogonalLoop=1;jettySize=auto;html=1;entryX=0;entryY=0.5;entryDx=0;entryDy=0;" parent="yiwDRgRXwIkbEOtySxnL-5" source="9ZIoakH_FyQM4hklJKBf-120" target="9ZIoakH_FyQM4hklJKBf-125" edge="1">
          <mxGeometry relative="1" as="geometry" />
        </mxCell>
        <mxCell id="9ZIoakH_FyQM4hklJKBf-140" style="edgeStyle=orthogonalEdgeStyle;rounded=0;orthogonalLoop=1;jettySize=auto;html=1;entryX=0.5;entryY=0;entryDx=0;entryDy=0;" parent="yiwDRgRXwIkbEOtySxnL-5" source="9ZIoakH_FyQM4hklJKBf-123" target="9ZIoakH_FyQM4hklJKBf-148" edge="1">
          <mxGeometry relative="1" as="geometry">
            <mxPoint x="945" y="889" as="targetPoint" />
          </mxGeometry>
        </mxCell>
        <mxCell id="9ZIoakH_FyQM4hklJKBf-142" style="edgeStyle=orthogonalEdgeStyle;rounded=0;orthogonalLoop=1;jettySize=auto;html=1;entryX=0.5;entryY=1;entryDx=0;entryDy=0;" parent="yiwDRgRXwIkbEOtySxnL-5" source="9ZIoakH_FyQM4hklJKBf-125" target="9ZIoakH_FyQM4hklJKBf-148" edge="1">
          <mxGeometry relative="1" as="geometry">
            <mxPoint x="945" y="949" as="targetPoint" />
          </mxGeometry>
        </mxCell>
        <mxCell id="9ZIoakH_FyQM4hklJKBf-148" value="CONTINUE TO MAIN PROCESS" style="rounded=1;whiteSpace=wrap;html=1;fillColor=#dae8fc;strokeColor=#6c8ebf;" parent="yiwDRgRXwIkbEOtySxnL-5" vertex="1">
          <mxGeometry x="872" y="882" width="120" height="60" as="geometry" />
        </mxCell>
        <mxCell id="MdQ8T-4K6LYKRLkmuWS0-17" style="edgeStyle=orthogonalEdgeStyle;rounded=0;orthogonalLoop=1;jettySize=auto;html=1;entryX=0;entryY=0.5;entryDx=0;entryDy=0;" parent="yiwDRgRXwIkbEOtySxnL-5" source="9ZIoakH_FyQM4hklJKBf-124" target="9ZIoakH_FyQM4hklJKBf-148" edge="1">
          <mxGeometry relative="1" as="geometry" />
        </mxCell>
        <mxCell id="MdQ8T-4K6LYKRLkmuWS0-12" style="edgeStyle=orthogonalEdgeStyle;rounded=0;orthogonalLoop=1;jettySize=auto;html=1;entryX=0.5;entryY=0;entryDx=0;entryDy=0;" parent="yiwDRgRXwIkbEOtySxnL-5" source="MdQ8T-4K6LYKRLkmuWS0-1" target="9ZIoakH_FyQM4hklJKBf-112" edge="1">
          <mxGeometry relative="1" as="geometry" />
        </mxCell>
        <mxCell id="MdQ8T-4K6LYKRLkmuWS0-13" value="&lt;b&gt;&lt;font style=&quot;font-size: 14px;&quot;&gt;YES&lt;/font&gt;&lt;/b&gt;" style="edgeLabel;html=1;align=center;verticalAlign=middle;resizable=0;points=[];" parent="MdQ8T-4K6LYKRLkmuWS0-12" vertex="1" connectable="0">
          <mxGeometry x="-0.2506" y="-3" relative="1" as="geometry">
            <mxPoint as="offset" />
          </mxGeometry>
        </mxCell>
        <mxCell id="MdQ8T-4K6LYKRLkmuWS0-1" value="(re)Check variable&lt;br&gt;&amp;nbsp;if washCount &amp;lt;= 2" style="rounded=0;whiteSpace=wrap;html=1;" parent="yiwDRgRXwIkbEOtySxnL-5" vertex="1">
          <mxGeometry x="195" y="394" width="160" height="60" as="geometry" />
        </mxCell>
        <mxCell id="MdQ8T-4K6LYKRLkmuWS0-5" style="edgeStyle=orthogonalEdgeStyle;rounded=0;orthogonalLoop=1;jettySize=auto;html=1;entryX=0.5;entryY=0;entryDx=0;entryDy=0;" parent="yiwDRgRXwIkbEOtySxnL-5" source="9ZIoakH_FyQM4hklJKBf-50" target="MdQ8T-4K6LYKRLkmuWS0-1" edge="1">
          <mxGeometry relative="1" as="geometry" />
        </mxCell>
        <mxCell id="MdQ8T-4K6LYKRLkmuWS0-15" style="edgeStyle=orthogonalEdgeStyle;rounded=0;orthogonalLoop=1;jettySize=auto;html=1;entryX=1;entryY=0.5;entryDx=0;entryDy=0;" parent="yiwDRgRXwIkbEOtySxnL-5" source="MdQ8T-4K6LYKRLkmuWS0-7" target="9ZIoakH_FyQM4hklJKBf-112" edge="1">
          <mxGeometry relative="1" as="geometry">
            <Array as="points">
              <mxPoint x="563" y="621" />
            </Array>
          </mxGeometry>
        </mxCell>
        <mxCell id="MdQ8T-4K6LYKRLkmuWS0-16" value="&lt;font style=&quot;font-size: 14px;&quot;&gt;&lt;b&gt;NO&lt;/b&gt;&lt;/font&gt;" style="edgeLabel;html=1;align=center;verticalAlign=middle;resizable=0;points=[];" parent="MdQ8T-4K6LYKRLkmuWS0-15" vertex="1" connectable="0">
          <mxGeometry x="-0.8004" y="2" relative="1" as="geometry">
            <mxPoint as="offset" />
          </mxGeometry>
        </mxCell>
        <mxCell id="MdQ8T-4K6LYKRLkmuWS0-7" value="&lt;b&gt;DISPLAY:&lt;br&gt;YOU EXCEEDED YOUR DAILY WASHES. PROCEED WITH YOUR SIGNED UP WASH? (REGULAR &lt;br&gt;RATES WILL BE APPLIED)&lt;/b&gt;" style="rhombus;whiteSpace=wrap;html=1;fillColor=#f5f5f5;fontColor=#333333;strokeColor=#666666;" parent="yiwDRgRXwIkbEOtySxnL-5" vertex="1">
          <mxGeometry x="450" y="311" width="226" height="226" as="geometry" />
        </mxCell>
        <mxCell id="MdQ8T-4K6LYKRLkmuWS0-18" value="&lt;i&gt;&lt;font style=&quot;font-size: 14px;&quot;&gt;// This option doesn&#39;t add +1 to washCount because the customer selected a different wash option, like an extra wash.&lt;/font&gt;&lt;/i&gt;" style="text;html=1;strokeColor=none;fillColor=none;align=center;verticalAlign=middle;whiteSpace=wrap;rounded=0;" parent="yiwDRgRXwIkbEOtySxnL-5" vertex="1">
          <mxGeometry x="950" y="952" width="280" height="120" as="geometry" />
        </mxCell>
        <mxCell id="MdQ8T-4K6LYKRLkmuWS0-8" style="edgeStyle=orthogonalEdgeStyle;rounded=0;orthogonalLoop=1;jettySize=auto;html=1;entryX=0;entryY=0.5;entryDx=0;entryDy=0;" parent="yiwDRgRXwIkbEOtySxnL-5" source="MdQ8T-4K6LYKRLkmuWS0-1" target="MdQ8T-4K6LYKRLkmuWS0-7" edge="1">
          <mxGeometry relative="1" as="geometry" />
        </mxCell>
        <mxCell id="MdQ8T-4K6LYKRLkmuWS0-9" value="&lt;b&gt;&lt;font style=&quot;font-size: 14px;&quot;&gt;NO&lt;/font&gt;&lt;/b&gt;" style="edgeLabel;html=1;align=center;verticalAlign=middle;resizable=0;points=[];" parent="MdQ8T-4K6LYKRLkmuWS0-8" vertex="1" connectable="0">
          <mxGeometry x="0.0767" y="-2" relative="1" as="geometry">
            <mxPoint as="offset" />
          </mxGeometry>
        </mxCell>
        <mxCell id="yiwDRgRXwIkbEOtySxnL-3" style="edgeStyle=orthogonalEdgeStyle;rounded=0;orthogonalLoop=1;jettySize=auto;html=1;entryX=0;entryY=0.5;entryDx=0;entryDy=0;" parent="yiwDRgRXwIkbEOtySxnL-5" source="yiwDRgRXwIkbEOtySxnL-1" target="9ZIoakH_FyQM4hklJKBf-60" edge="1">
          <mxGeometry relative="1" as="geometry" />
        </mxCell>
        <mxCell id="yiwDRgRXwIkbEOtySxnL-1" value="CHECK SIGNED UP MEMBER OPTION" style="rounded=0;whiteSpace=wrap;html=1;" parent="yiwDRgRXwIkbEOtySxnL-5" vertex="1">
          <mxGeometry x="761" y="395" width="160" height="60" as="geometry" />
        </mxCell>
        <mxCell id="yiwDRgRXwIkbEOtySxnL-2" style="edgeStyle=orthogonalEdgeStyle;rounded=0;orthogonalLoop=1;jettySize=auto;html=1;entryX=0;entryY=0.5;entryDx=0;entryDy=0;" parent="yiwDRgRXwIkbEOtySxnL-5" source="MdQ8T-4K6LYKRLkmuWS0-7" target="yiwDRgRXwIkbEOtySxnL-1" edge="1">
          <mxGeometry relative="1" as="geometry" />
        </mxCell>
        <mxCell id="yiwDRgRXwIkbEOtySxnL-4" value="&lt;b&gt;&lt;font style=&quot;font-size: 14px;&quot;&gt;YES&lt;/font&gt;&lt;/b&gt;" style="edgeLabel;html=1;align=center;verticalAlign=middle;resizable=0;points=[];" parent="yiwDRgRXwIkbEOtySxnL-2" vertex="1" connectable="0">
          <mxGeometry x="-0.2171" y="-2" relative="1" as="geometry">
            <mxPoint as="offset" />
          </mxGeometry>
        </mxCell>
        <mxCell id="yiwDRgRXwIkbEOtySxnL-63" value="&lt;font style=&quot;font-size: 14px;&quot;&gt;&lt;i&gt;&lt;font style=&quot;&quot;&gt;//&amp;nbsp;&lt;/font&gt;&lt;/i&gt;&lt;i&gt;this option adds 1 to the log count only, once the client has already reached his two daily usages.&lt;/i&gt;&lt;/font&gt;" style="text;html=1;strokeColor=none;fillColor=none;align=center;verticalAlign=middle;whiteSpace=wrap;rounded=0;" parent="yiwDRgRXwIkbEOtySxnL-5" vertex="1">
          <mxGeometry x="1590" y="435" width="280" height="120" as="geometry" />
        </mxCell>
        <mxCell id="yiwDRgRXwIkbEOtySxnL-107" value="" style="group" parent="1" vertex="1" connectable="0">
          <mxGeometry x="110" y="350" width="412.57" height="1260" as="geometry" />
        </mxCell>
        <mxCell id="yiwDRgRXwIkbEOtySxnL-65" value="&lt;b&gt;START&lt;/b&gt;.&amp;nbsp; &amp;nbsp;&amp;nbsp;" style="triangle;whiteSpace=wrap;html=1;fillColor=#ffcd28;strokeColor=#d79b00;gradientColor=#ffa500;" parent="yiwDRgRXwIkbEOtySxnL-107" vertex="1">
          <mxGeometry x="71.66708920187793" y="58.10914681014604" width="123.48045774647886" height="164.6425826287471" as="geometry" />
        </mxCell>
        <mxCell id="yiwDRgRXwIkbEOtySxnL-66" value="CHECH VARIABLE washCost" style="rounded=0;whiteSpace=wrap;html=1;" parent="yiwDRgRXwIkbEOtySxnL-107" vertex="1">
          <mxGeometry x="63.89024154929558" y="271.1760184473482" width="154.95586854460095" height="58.10914681014604" as="geometry" />
        </mxCell>
        <mxCell id="yiwDRgRXwIkbEOtySxnL-67" style="edgeStyle=orthogonalEdgeStyle;rounded=0;orthogonalLoop=1;jettySize=auto;html=1;entryX=0.5;entryY=0;entryDx=0;entryDy=0;" parent="yiwDRgRXwIkbEOtySxnL-107" source="yiwDRgRXwIkbEOtySxnL-65" target="yiwDRgRXwIkbEOtySxnL-66" edge="1">
          <mxGeometry relative="1" as="geometry">
            <Array as="points">
              <mxPoint x="141.39723004694835" y="271.1760184473482" />
              <mxPoint x="141.39723004694835" y="271.1760184473482" />
            </Array>
          </mxGeometry>
        </mxCell>
        <mxCell id="yiwDRgRXwIkbEOtySxnL-68" value="&lt;b&gt;DISPLAY:&lt;br&gt;INSERT CREDIT CARD (NO CASH AVAILABLE)&lt;br&gt;&lt;/b&gt;" style="rhombus;whiteSpace=wrap;html=1;fillColor=#f5f5f5;fontColor=#333333;strokeColor=#666666;" parent="yiwDRgRXwIkbEOtySxnL-107" vertex="1">
          <mxGeometry x="80.38335680751173" y="590.7763259031515" width="121.969638028169" height="125.9031514219831" as="geometry" />
        </mxCell>
        <mxCell id="yiwDRgRXwIkbEOtySxnL-72" value="CHECK CREDIT CARD" style="whiteSpace=wrap;html=1;aspect=fixed;" parent="yiwDRgRXwIkbEOtySxnL-107" vertex="1">
          <mxGeometry x="103.28777112676065" y="757.3558800922367" width="77.47793427230047" height="77.47793427230047" as="geometry" />
        </mxCell>
        <mxCell id="yiwDRgRXwIkbEOtySxnL-73" style="edgeStyle=orthogonalEdgeStyle;rounded=0;orthogonalLoop=1;jettySize=auto;html=1;entryX=0.5;entryY=0;entryDx=0;entryDy=0;" parent="yiwDRgRXwIkbEOtySxnL-107" source="yiwDRgRXwIkbEOtySxnL-68" target="yiwDRgRXwIkbEOtySxnL-72" edge="1">
          <mxGeometry relative="1" as="geometry" />
        </mxCell>
        <mxCell id="yiwDRgRXwIkbEOtySxnL-86" value="&lt;span style=&quot;font-size: 24px;&quot;&gt;&lt;b&gt;&lt;u&gt;PAYMENT PROCESS&lt;/u&gt;&lt;/b&gt;&lt;/span&gt;" style="text;html=1;align=center;verticalAlign=middle;resizable=0;points=[];autosize=1;strokeColor=none;fillColor=none;" parent="yiwDRgRXwIkbEOtySxnL-107" vertex="1">
          <mxGeometry width="260" height="40" as="geometry" />
        </mxCell>
        <mxCell id="yiwDRgRXwIkbEOtySxnL-97" value="&lt;b&gt;&lt;font style=&quot;font-size: 14px;&quot;&gt;YES&lt;/font&gt;&lt;/b&gt;" style="edgeStyle=orthogonalEdgeStyle;rounded=0;orthogonalLoop=1;jettySize=auto;html=1;entryX=0.5;entryY=0;entryDx=0;entryDy=0;" parent="yiwDRgRXwIkbEOtySxnL-107" source="yiwDRgRXwIkbEOtySxnL-95" target="yiwDRgRXwIkbEOtySxnL-68" edge="1">
          <mxGeometry relative="1" as="geometry">
            <Array as="points">
              <mxPoint x="141.39723004694835" y="552.0368946963874" />
              <mxPoint x="141.39723004694835" y="552.0368946963874" />
            </Array>
          </mxGeometry>
        </mxCell>
        <mxCell id="yiwDRgRXwIkbEOtySxnL-98" style="edgeStyle=orthogonalEdgeStyle;rounded=0;orthogonalLoop=1;jettySize=auto;html=1;" parent="yiwDRgRXwIkbEOtySxnL-107" source="yiwDRgRXwIkbEOtySxnL-95" edge="1">
          <mxGeometry relative="1" as="geometry">
            <mxPoint x="296.35309859154927" y="455.18831667947734" as="targetPoint" />
          </mxGeometry>
        </mxCell>
        <mxCell id="yiwDRgRXwIkbEOtySxnL-99" value="&lt;b&gt;&lt;font style=&quot;font-size: 14px;&quot;&gt;NO&lt;/font&gt;&lt;/b&gt;" style="edgeLabel;html=1;align=center;verticalAlign=middle;resizable=0;points=[];" parent="yiwDRgRXwIkbEOtySxnL-98" vertex="1" connectable="0">
          <mxGeometry x="-0.1168" relative="1" as="geometry">
            <mxPoint as="offset" />
          </mxGeometry>
        </mxCell>
        <mxCell id="yiwDRgRXwIkbEOtySxnL-95" value="&lt;b&gt;DISPLAY:&lt;br&gt;TOTAL AMOUNT:&lt;br&gt;washCost&lt;br&gt;PROCEED WITH PAYMENT?&lt;br&gt;&lt;/b&gt;" style="rhombus;whiteSpace=wrap;html=1;fillColor=#f5f5f5;fontColor=#333333;strokeColor=#666666;" parent="yiwDRgRXwIkbEOtySxnL-107" vertex="1">
          <mxGeometry x="66.82471830985915" y="377.70945426594926" width="150.11349765258214" height="154.9577248270561" as="geometry" />
        </mxCell>
        <mxCell id="yiwDRgRXwIkbEOtySxnL-96" style="edgeStyle=orthogonalEdgeStyle;rounded=0;orthogonalLoop=1;jettySize=auto;html=1;entryX=0.5;entryY=0;entryDx=0;entryDy=0;" parent="yiwDRgRXwIkbEOtySxnL-107" source="yiwDRgRXwIkbEOtySxnL-66" target="yiwDRgRXwIkbEOtySxnL-95" edge="1">
          <mxGeometry relative="1" as="geometry" />
        </mxCell>
        <mxCell id="yiwDRgRXwIkbEOtySxnL-100" value="RESTAR MAIN PROCESS" style="rounded=1;whiteSpace=wrap;html=1;fillColor=#f8cecc;strokeColor=#b85450;" parent="yiwDRgRXwIkbEOtySxnL-107" vertex="1">
          <mxGeometry x="296.35309859154927" y="426.1337432744043" width="116.2169014084507" height="58.10914681014604" as="geometry" />
        </mxCell>
        <mxCell id="yiwDRgRXwIkbEOtySxnL-101" value="&lt;b&gt;DISPLAY:&lt;br&gt;INPUT PIN &lt;br&gt;NUMBER&lt;br&gt;&lt;/b&gt;" style="rhombus;whiteSpace=wrap;html=1;fillColor=#f5f5f5;fontColor=#333333;strokeColor=#666666;" parent="yiwDRgRXwIkbEOtySxnL-107" vertex="1">
          <mxGeometry x="81.526156338028" y="883.2590315142198" width="121.969638028169" height="125.9031514219831" as="geometry" />
        </mxCell>
        <mxCell id="yiwDRgRXwIkbEOtySxnL-102" style="edgeStyle=orthogonalEdgeStyle;rounded=0;orthogonalLoop=1;jettySize=auto;html=1;entryX=0.5;entryY=0;entryDx=0;entryDy=0;" parent="yiwDRgRXwIkbEOtySxnL-107" source="yiwDRgRXwIkbEOtySxnL-72" target="yiwDRgRXwIkbEOtySxnL-101" edge="1">
          <mxGeometry relative="1" as="geometry" />
        </mxCell>
        <mxCell id="yiwDRgRXwIkbEOtySxnL-103" value="PROCESS&lt;br&gt;payment" style="whiteSpace=wrap;html=1;aspect=fixed;" parent="yiwDRgRXwIkbEOtySxnL-107" vertex="1">
          <mxGeometry x="103.77200821596253" y="1063.3973866256727" width="77.47793427230047" height="77.47793427230047" as="geometry" />
        </mxCell>
        <mxCell id="yiwDRgRXwIkbEOtySxnL-104" style="edgeStyle=orthogonalEdgeStyle;rounded=0;orthogonalLoop=1;jettySize=auto;html=1;entryX=0.5;entryY=0;entryDx=0;entryDy=0;" parent="yiwDRgRXwIkbEOtySxnL-107" source="yiwDRgRXwIkbEOtySxnL-101" target="yiwDRgRXwIkbEOtySxnL-103" edge="1">
          <mxGeometry relative="1" as="geometry" />
        </mxCell>
        <mxCell id="yiwDRgRXwIkbEOtySxnL-105" value="CONTINUE TO SUBPROCESS 1" style="rounded=1;whiteSpace=wrap;html=1;fillColor=#dae8fc;strokeColor=#6c8ebf;" parent="yiwDRgRXwIkbEOtySxnL-107" vertex="1">
          <mxGeometry x="85.22572769953051" y="1201.890853189854" width="116.2169014084507" height="58.10914681014604" as="geometry" />
        </mxCell>
        <mxCell id="yiwDRgRXwIkbEOtySxnL-106" style="edgeStyle=orthogonalEdgeStyle;rounded=0;orthogonalLoop=1;jettySize=auto;html=1;entryX=0.5;entryY=0;entryDx=0;entryDy=0;" parent="yiwDRgRXwIkbEOtySxnL-107" source="yiwDRgRXwIkbEOtySxnL-103" target="yiwDRgRXwIkbEOtySxnL-105" edge="1">
          <mxGeometry relative="1" as="geometry" />
        </mxCell>
        <mxCell id="yiwDRgRXwIkbEOtySxnL-108" style="edgeStyle=orthogonalEdgeStyle;rounded=0;orthogonalLoop=1;jettySize=auto;html=1;entryX=0;entryY=0.5;entryDx=0;entryDy=0;dashed=1;dashPattern=8 8;fillColor=#f5f5f5;strokeColor=#b0b0b0;" parent="1" source="xVHsqw0I0k0_TadlD1PF-64" target="yiwDRgRXwIkbEOtySxnL-65" edge="1">
          <mxGeometry relative="1" as="geometry">
            <mxPoint x="100.00000000000023" y="2770" as="targetPoint" />
            <Array as="points">
              <mxPoint x="170" y="2760" />
              <mxPoint x="170" y="2771" />
              <mxPoint x="40" y="2771" />
              <mxPoint x="40" y="490" />
            </Array>
          </mxGeometry>
        </mxCell>
        <mxCell id="yiwDRgRXwIkbEOtySxnL-109" style="edgeStyle=orthogonalEdgeStyle;rounded=0;orthogonalLoop=1;jettySize=auto;html=1;dashed=1;dashPattern=12 12;fillColor=#f5f5f5;strokeColor=#c7c7c7;entryX=0.989;entryY=0.863;entryDx=0;entryDy=0;entryPerimeter=0;" parent="1" source="yiwDRgRXwIkbEOtySxnL-105" target="xVHsqw0I0k0_TadlD1PF-64" edge="1">
          <mxGeometry relative="1" as="geometry">
            <mxPoint x="410" y="2760" as="targetPoint" />
            <Array as="points">
              <mxPoint x="600" y="1581" />
              <mxPoint x="600" y="2760" />
            </Array>
          </mxGeometry>
        </mxCell>
        <mxCell id="sL0BZf1noa_vFK0a2wfR-1" value="&lt;div style=&quot;text-align: left;&quot;&gt;&lt;span style=&quot;background-color: initial;&quot;&gt;&lt;b&gt;&lt;font style=&quot;font-size: 48px;&quot;&gt;APS145-ZDD&lt;/font&gt;&lt;/b&gt;&lt;/span&gt;&lt;/div&gt;&lt;div style=&quot;text-align: left;&quot;&gt;&lt;span style=&quot;background-color: initial;&quot;&gt;&lt;b&gt;&lt;font style=&quot;font-size: 48px;&quot;&gt;GROUP 5 MEMBERS:&lt;/font&gt;&lt;/b&gt;&lt;/span&gt;&lt;/div&gt;&lt;div style=&quot;text-align: left;&quot;&gt;&lt;span style=&quot;background-color: initial;&quot;&gt;&lt;b&gt;&lt;font style=&quot;font-size: 48px;&quot;&gt;&lt;br&gt;&lt;/font&gt;&lt;/b&gt;&lt;/span&gt;&lt;/div&gt;&lt;div style=&quot;text-align: left;&quot;&gt;&lt;span style=&quot;background-color: initial;&quot;&gt;&lt;b&gt;&lt;font style=&quot;font-size: 48px;&quot;&gt;HIRAN TIAGO LINS BORBA&lt;/font&gt;&lt;/b&gt;&lt;/span&gt;&lt;/div&gt;&lt;div style=&quot;text-align: left;&quot;&gt;&lt;span style=&quot;background-color: initial;&quot;&gt;&lt;b&gt;&lt;font style=&quot;font-size: 48px;&quot;&gt;ELMAR JARFALI&lt;/font&gt;&lt;/b&gt;&lt;/span&gt;&lt;/div&gt;" style="text;html=1;align=center;verticalAlign=middle;resizable=0;points=[];autosize=1;strokeColor=none;fillColor=none;" vertex="1" parent="1">
          <mxGeometry x="2440" y="60" width="650" height="300" as="geometry" />
        </mxCell>
      </root>
    </mxGraphModel>
  </diagram>
</mxfile>
